<?xml version="1.0" encoding="UTF-8" standalone="no"?>
<!DOCTYPE svg PUBLIC "-//W3C//DTD SVG 1.1//EN"
 "http://www.w3.org/Graphics/SVG/1.1/DTD/svg11.dtd">
<!-- Generated by graphviz version 2.38.0 (20140413.2041)
 -->
<!-- Title: models_diagram Pages: 1 -->
<svg width="571pt" height="230pt"
 viewBox="0.00 0.00 571.34 230.00" xmlns="http://www.w3.org/2000/svg" xmlns:xlink="http://www.w3.org/1999/xlink">
<g id="graph0" class="graph" transform="scale(1 1) rotate(0) translate(4 226)">
<title>models_diagram</title>
<polygon fill="none" stroke="none" points="-4,4 -4,-226 567.343,-226 567.343,4 -4,4"/>
<!-- _diagram_info -->
<g id="node1" class="node"><title>_diagram_info</title>
<text text-anchor="start" x="8" y="-207.6" font-family="Times,serif" font-size="13.00">Models diagram</text>
<text text-anchor="start" x="8" y="-193.6" font-family="Times,serif" font-size="13.00">Date: Apr 18 2017 &#45; 22:02</text>
<text text-anchor="start" x="8" y="-179.6" font-family="Times,serif" font-size="13.00">Migration version: 20170419025222</text>
<text text-anchor="start" x="8" y="-165.6" font-family="Times,serif" font-size="13.00">Generated by RailRoady 1.5.2</text>
<text text-anchor="start" x="8" y="-151.6" font-family="Times,serif" font-size="13.00">http://railroady.prestonlee.com</text>
</g>
<!-- Category -->
<g id="node2" class="node"><title>Category</title>
<ellipse fill="none" stroke="black" cx="275" cy="-183" rx="42.7926" ry="18"/>
<text text-anchor="middle" x="275" y="-179.3" font-family="Times,serif" font-size="14.00">Category</text>
</g>
<!-- Inventory -->
<g id="node3" class="node"><title>Inventory</title>
<ellipse fill="none" stroke="black" cx="363" cy="-18" rx="44.6926" ry="18"/>
<text text-anchor="middle" x="363" y="-14.3" font-family="Times,serif" font-size="14.00">Inventory</text>
</g>
<!-- Work -->
<g id="node4" class="node"><title>Work</title>
<ellipse fill="none" stroke="black" cx="363" cy="-90" rx="31.3957" ry="18"/>
<text text-anchor="middle" x="363" y="-86.3" font-family="Times,serif" font-size="14.00">Work</text>
</g>
<!-- Work&#45;&gt;Inventory -->
<g id="edge1" class="edge"><title>Work&#45;&gt;Inventory</title>
<path fill="none" stroke="#04c4cc" d="M363,-63.6398C363,-57.348 363,-50.6053 363,-44.3156"/>
<ellipse fill="none" stroke="#04c4cc" cx="363" cy="-67.6966" rx="4" ry="4"/>
<ellipse fill="#04c4cc" stroke="#04c4cc" cx="363" cy="-40.1043" rx="4" ry="4"/>
</g>
<!-- User -->
<g id="node5" class="node"><title>User</title>
<ellipse fill="none" stroke="black" cx="363" cy="-183" rx="27.0966" ry="18"/>
<text text-anchor="middle" x="363" y="-179.3" font-family="Times,serif" font-size="14.00">User</text>
</g>
<!-- User&#45;&gt;Work -->
<g id="edge2" class="edge"><title>User&#45;&gt;Work</title>
<path fill="none" stroke="#884beb" d="M363,-156.729C363,-144.725 363,-130.362 363,-118.129"/>
<ellipse fill="none" stroke="#884beb" cx="363" cy="-160.884" rx="4" ry="4"/>
<polygon fill="#884beb" stroke="#884beb" points="363,-118.04 367.5,-108.04 363,-113.04 363,-108.04 363,-108.04 363,-108.04 363,-113.04 358.5,-108.04 363,-118.04 363,-118.04"/>
</g>
<!-- ApplicationRecord -->
<g id="node6" class="node"><title>ApplicationRecord</title>
<ellipse fill="none" stroke="black" cx="486" cy="-183" rx="77.1866" ry="18"/>
<text text-anchor="middle" x="486" y="-179.3" font-family="Times,serif" font-size="14.00">ApplicationRecord</text>
</g>
</g>
</svg>
