<?xml version="1.0" encoding="UTF-8" standalone="no"?>
<!DOCTYPE svg PUBLIC "-//W3C//DTD SVG 1.1//EN"
 "http://www.w3.org/Graphics/SVG/1.1/DTD/svg11.dtd">
<!-- Generated by graphviz version 2.38.0 (20140413.2041)
 -->
<!-- Title: models_diagram Pages: 1 -->
<svg width="918pt" height="446pt"
 viewBox="0.00 0.00 918.34 446.00" xmlns="http://www.w3.org/2000/svg" xmlns:xlink="http://www.w3.org/1999/xlink">
<g id="graph0" class="graph" transform="scale(1 1) rotate(0) translate(4 442)">
<title>models_diagram</title>
<polygon fill="none" stroke="none" points="-4,4 -4,-442 914.343,-442 914.343,4 -4,4"/>
<!-- _diagram_info -->
<g id="node1" class="node"><title>_diagram_info</title>
<text text-anchor="start" x="8" y="-409.1" font-family="Times,serif" font-size="13.00">Models diagram</text>
<text text-anchor="start" x="8" y="-395.1" font-family="Times,serif" font-size="13.00">Date: Apr 18 2017 &#45; 22:02</text>
<text text-anchor="start" x="8" y="-381.1" font-family="Times,serif" font-size="13.00">Migration version: 20170419025222</text>
<text text-anchor="start" x="8" y="-367.1" font-family="Times,serif" font-size="13.00">Generated by RailRoady 1.5.2</text>
<text text-anchor="start" x="8" y="-353.1" font-family="Times,serif" font-size="13.00">http://railroady.prestonlee.com</text>
</g>
<!-- Category -->
<g id="node2" class="node"><title>Category</title>
<path fill="none" stroke="black" d="M244,-339C244,-339 464,-339 464,-339 470,-339 476,-345 476,-351 476,-351 476,-418 476,-418 476,-424 470,-430 464,-430 464,-430 244,-430 244,-430 238,-430 232,-424 232,-418 232,-418 232,-351 232,-351 232,-345 238,-339 244,-339"/>
<text text-anchor="middle" x="354" y="-414.8" font-family="Times,serif" font-size="14.00">Category</text>
<polyline fill="none" stroke="black" points="232,-407 476,-407 "/>
<text text-anchor="start" x="240" y="-391.8" font-family="Times,serif" font-size="14.00">id :integer</text>
<text text-anchor="start" x="240" y="-376.8" font-family="Times,serif" font-size="14.00">name :character varying</text>
<text text-anchor="start" x="240" y="-361.8" font-family="Times,serif" font-size="14.00">created_at :timestamp without time zone</text>
<text text-anchor="start" x="240" y="-346.8" font-family="Times,serif" font-size="14.00">updated_at :timestamp without time zone</text>
</g>
<!-- Inventory -->
<g id="node3" class="node"><title>Inventory</title>
<path fill="none" stroke="black" d="M506,-0.5C506,-0.5 726,-0.5 726,-0.5 732,-0.5 738,-6.5 738,-12.5 738,-12.5 738,-124.5 738,-124.5 738,-130.5 732,-136.5 726,-136.5 726,-136.5 506,-136.5 506,-136.5 500,-136.5 494,-130.5 494,-124.5 494,-124.5 494,-12.5 494,-12.5 494,-6.5 500,-0.5 506,-0.5"/>
<text text-anchor="middle" x="616" y="-121.3" font-family="Times,serif" font-size="14.00">Inventory</text>
<polyline fill="none" stroke="black" points="494,-113.5 738,-113.5 "/>
<text text-anchor="start" x="502" y="-98.3" font-family="Times,serif" font-size="14.00">id :integer</text>
<text text-anchor="start" x="502" y="-83.3" font-family="Times,serif" font-size="14.00">size :integer</text>
<text text-anchor="start" x="502" y="-68.3" font-family="Times,serif" font-size="14.00">desc :character varying</text>
<text text-anchor="start" x="502" y="-53.3" font-family="Times,serif" font-size="14.00">category_id :integer</text>
<text text-anchor="start" x="502" y="-38.3" font-family="Times,serif" font-size="14.00">NumSerie :character varying</text>
<text text-anchor="start" x="502" y="-23.3" font-family="Times,serif" font-size="14.00">created_at :timestamp without time zone</text>
<text text-anchor="start" x="502" y="-8.3" font-family="Times,serif" font-size="14.00">updated_at :timestamp without time zone</text>
</g>
<!-- Work -->
<g id="node4" class="node"><title>Work</title>
<path fill="none" stroke="black" d="M506,-173.5C506,-173.5 726,-173.5 726,-173.5 732,-173.5 738,-179.5 738,-185.5 738,-185.5 738,-282.5 738,-282.5 738,-288.5 732,-294.5 726,-294.5 726,-294.5 506,-294.5 506,-294.5 500,-294.5 494,-288.5 494,-282.5 494,-282.5 494,-185.5 494,-185.5 494,-179.5 500,-173.5 506,-173.5"/>
<text text-anchor="middle" x="616" y="-279.3" font-family="Times,serif" font-size="14.00">Work</text>
<polyline fill="none" stroke="black" points="494,-271.5 738,-271.5 "/>
<text text-anchor="start" x="502" y="-256.3" font-family="Times,serif" font-size="14.00">id :integer</text>
<text text-anchor="start" x="502" y="-241.3" font-family="Times,serif" font-size="14.00">user_id :integer</text>
<text text-anchor="start" x="502" y="-226.3" font-family="Times,serif" font-size="14.00">description :character varying</text>
<text text-anchor="start" x="502" y="-211.3" font-family="Times,serif" font-size="14.00">created_at :timestamp without time zone</text>
<text text-anchor="start" x="502" y="-196.3" font-family="Times,serif" font-size="14.00">updated_at :timestamp without time zone</text>
<text text-anchor="start" x="502" y="-181.3" font-family="Times,serif" font-size="14.00">inventory_id :integer</text>
</g>
<!-- Work&#45;&gt;Inventory -->
<g id="edge1" class="edge"><title>Work&#45;&gt;Inventory</title>
<path fill="none" stroke="#0f9796" d="M616,-164.905C616,-158.33 616,-151.634 616,-144.993"/>
<ellipse fill="none" stroke="#0f9796" cx="616" cy="-169.047" rx="4" ry="4"/>
<ellipse fill="#0f9796" stroke="#0f9796" cx="616" cy="-140.625" rx="4" ry="4"/>
</g>
<!-- User -->
<g id="node5" class="node"><title>User</title>
<path fill="none" stroke="black" d="M506,-331.5C506,-331.5 726,-331.5 726,-331.5 732,-331.5 738,-337.5 738,-343.5 738,-343.5 738,-425.5 738,-425.5 738,-431.5 732,-437.5 726,-437.5 726,-437.5 506,-437.5 506,-437.5 500,-437.5 494,-431.5 494,-425.5 494,-425.5 494,-343.5 494,-343.5 494,-337.5 500,-331.5 506,-331.5"/>
<text text-anchor="middle" x="616" y="-422.3" font-family="Times,serif" font-size="14.00">User</text>
<polyline fill="none" stroke="black" points="494,-414.5 738,-414.5 "/>
<text text-anchor="start" x="502" y="-399.3" font-family="Times,serif" font-size="14.00">id :integer</text>
<text text-anchor="start" x="502" y="-384.3" font-family="Times,serif" font-size="14.00">name :character varying</text>
<text text-anchor="start" x="502" y="-369.3" font-family="Times,serif" font-size="14.00">email :character varying</text>
<text text-anchor="start" x="502" y="-354.3" font-family="Times,serif" font-size="14.00">created_at :timestamp without time zone</text>
<text text-anchor="start" x="502" y="-339.3" font-family="Times,serif" font-size="14.00">updated_at :timestamp without time zone</text>
</g>
<!-- User&#45;&gt;Work -->
<g id="edge2" class="edge"><title>User&#45;&gt;Work</title>
<path fill="none" stroke="#cab3d9" d="M616,-323.033C616,-317.052 616,-310.948 616,-304.882"/>
<ellipse fill="none" stroke="#cab3d9" cx="616" cy="-327.144" rx="4" ry="4"/>
<polygon fill="#cab3d9" stroke="#cab3d9" points="616,-304.74 620.5,-294.739 616,-299.74 616,-294.74 616,-294.74 616,-294.74 616,-299.74 611.5,-294.74 616,-304.74 616,-304.74"/>
</g>
<!-- ApplicationRecord -->
<g id="node6" class="node"><title>ApplicationRecord</title>
<ellipse fill="none" stroke="black" cx="833" cy="-384.5" rx="77.1866" ry="18"/>
<text text-anchor="middle" x="833" y="-380.8" font-family="Times,serif" font-size="14.00">ApplicationRecord</text>
</g>
</g>
</svg>
